<?xml version="1.0" encoding="utf-8"?>
<!-- Generator: Adobe Illustrator 16.0.0, SVG Export Plug-In . SVG Version: 6.00 Build 0)  -->
<!DOCTYPE svg PUBLIC "-//W3C//DTD SVG 1.1//EN" "http://www.w3.org/Graphics/SVG/1.1/DTD/svg11.dtd">
<svg version="1.1" id="Layer_1" xmlns="http://www.w3.org/2000/svg" xmlns:xlink="http://www.w3.org/1999/xlink" x="0px" y="0px"
	 width="40px" height="52px" viewBox="0 0 40 52" style="enable-background:new 0 0 40 52;" xml:space="preserve">
<style type="text/css">
<![CDATA[
	.st0{fill-rule:evenodd;clip-rule:evenodd;}
]]>
</style>
<g>
	<g>
		<path fill="#FFF" d="M5,11.1V1c0-0.6-0.4-1-1-1S3,0.4,3,1v10.1c-1.7,0.4-3,1.9-3,3.8v0.2c0,1.8,1.3,3.4,3,3.8V51c0,0.6,0.4,1,1,1s1-0.4,1-1
			V18.9c1.7-0.4,3-1.9,3-3.8v-0.2C8,13,6.7,11.5,5,11.1z M6,15.1c0,1-0.8,1.9-1.9,1.9H3.9c-1,0-1.9-0.8-1.9-1.9v-0.2
			c0-1,0.8-1.9,1.9-1.9h0.2c1,0,1.9,0.8,1.9,1.9V15.1z M21,21.1V1c0-0.6-0.4-1-1-1s-1,0.4-1,1v20.1c-1.7,0.4-3,1.9-3,3.8v0.2
			c0,1.8,1.3,3.4,3,3.8V51c0,0.6,0.4,1,1,1s1-0.4,1-1V28.9c1.7-0.4,3-1.9,3-3.8v-0.2C24,23,22.7,21.5,21,21.1z M22,25.1
			c0,1-0.8,1.9-1.9,1.9h-0.2c-1,0-1.9-0.8-1.9-1.9v-0.2c0-1,0.8-1.9,1.9-1.9h0.2c1,0,1.9,0.8,1.9,1.9V25.1z M37,31.1V1
			c0-0.6-0.4-1-1-1s-1,0.4-1,1v30.1c-1.7,0.4-3,1.9-3,3.8v0.2c0,1.8,1.3,3.4,3,3.8V51c0,0.6,0.4,1,1,1s1-0.4,1-1V38.9
			c1.7-0.4,3-1.9,3-3.8v-0.2C40,33,38.7,31.5,37,31.1z M38,35.1c0,1-0.8,1.9-1.9,1.9h-0.2c-1,0-1.9-0.8-1.9-1.9v-0.2
			c0-1,0.8-1.9,1.9-1.9h0.2c1,0,1.9,0.8,1.9,1.9V35.1z"/>
	</g>
</g>
</svg>
